<?xml version="1.0" encoding="iso-8859-1"?>
<!-- Generator: Adobe Illustrator 29.8.2, SVG Export Plug-In . SVG Version: 9.03 Build 0)  -->
<svg version="1.1" id="Capa_1" xmlns="http://www.w3.org/2000/svg" xmlns:xlink="http://www.w3.org/1999/xlink" x="0px" y="0px"
	 viewBox="0 0 3000 3000" style="enable-background:new 0 0 3000 3000;" xml:space="preserve">
<path style="fill:#007E95;" d="M3000,3000H547.602C245.17,3000,0,2754.83,0,2452.398V0h2452.398C2754.83,0,3000,245.17,3000,547.602
	V3000z"/>
<g>
	<path style="fill:#FFFFFF;" d="M495.681,1890.97l33.888,33.889c81.188,81.188,213.301,81.188,294.505,0l21.049-21.05
		c20.637-20.636,48.069-32.001,77.244-32.001h17.926c49.678,0,96.38,19.344,131.501,54.465c39.331,39.336,91.625,61,147.251,61
		c55.625,0,107.921-21.662,147.257-60.997l21.758-21.758c20.636-20.637,48.068-32.002,77.243-32.002h108.928
		c29.183,0,56.612,11.363,77.24,31.999c39.331,39.337,91.626,61,147.252,61c55.624,0,107.921-21.662,147.265-61.006l2.127-2.128
		c20.638-20.636,48.069-32.001,77.244-32.001h65.402c8.665,0,17.173,1.01,25.397,2.958l2.298,3.958l3.939-2.288
		c17.048,5.131,32.666,14.426,45.608,27.373l25.333,25.333c40.6,40.599,93.913,60.896,147.247,60.892
		c53.32-0.005,106.661-20.302,147.258-60.892l45.31-45.31c20.635-20.636,48.067-32.001,77.242-32.001h59.82v-99h-19.566
		l-253.704-489.498c-26.535-51.198-66.342-93.049-115.115-121.029c-45.686-26.208-98.094-39.798-151.494-39.229
		c-53.423,0.543-105.521,15.173-150.664,42.306c-38.082,22.889-70.381,54.328-94.838,92.033l-333.488-574.322l-0.723-1.212
		c-31.438-51.322-75.643-92.937-127.836-120.345c-49.208-25.84-104.943-38.911-161.15-37.804
		c-56.218,1.108-111.385,16.368-159.537,44.129c-51.072,29.445-93.602,72.771-122.993,125.294L370.18,1759.97h-54.37v99h102.628
		C447.62,1858.97,475.051,1870.332,495.681,1890.97z M1974.685,1320.339c30.11-61.108,88.754-98.005,156.872-98.698
		c68.067-0.709,127.5,35.001,158.848,95.484l234.585,452.612c-23.095,10.375-43.88,24.702-61.843,42.665l-45.306,45.306
		c-42.601,42.592-111.909,42.595-154.5,0.003l-25.327-25.326c-5.281-5.284-10.815-10.242-16.571-14.889l0.787-0.457l-266.305-458.62
		L1974.685,1320.339z M1083.827,730.323c37.021-66.159,104.376-106.549,180.175-108.044
		c75.576-1.483,144.283,35.987,183.939,100.279l609.013,1048.821h-31.596c-27.483,0-54.297,5.335-79.693,15.857
		c-25.392,10.52-48.119,25.706-67.562,45.147l-2.128,2.129c-20.637,20.637-48.072,32.001-77.253,32.001
		c-29.18,0-56.611-11.363-77.238-31.994c-19.433-19.44-42.164-34.632-67.562-45.152c-25.394-10.519-52.205-15.853-79.691-15.853
		h-108.928c-27.484,0-54.297,5.335-79.694,15.857c-25.392,10.52-48.12,25.707-67.552,45.141l-21.758,21.758
		c-20.636,20.636-48.072,32.001-77.253,32.001c-29.179,0-56.611-11.363-77.245-32.001c-26.596-26.597-57.702-47.38-92.454-61.773
		c-34.75-14.393-71.44-21.69-109.054-21.69h-17.926c-27.484,0-54.297,5.335-79.694,15.857c-25.392,10.52-48.12,25.707-67.554,45.14
		l-21.046,21.047c-42.6,42.593-111.91,42.593-154.5,0.004l-33.882-33.883c-19.29-19.297-41.833-34.402-67.005-44.913
		L1083.827,730.323z"/>
	<path style="fill:#FFFFFF;" d="M2626.87,2017.317c-27.484,0-54.297,5.335-79.694,15.857c-25.391,10.52-48.119,25.706-67.553,45.14
		l-45.306,45.306c-42.601,42.595-111.909,42.596-154.5,0.003l-25.326-25.325c-19.433-19.44-42.164-34.632-67.562-45.153
		c-25.393-10.519-52.205-15.852-79.691-15.852h-65.401c-27.484,0-54.297,5.335-79.694,15.857
		c-25.392,10.52-48.12,25.707-67.554,45.141l-2.136,2.136c-20.637,20.637-48.072,32.002-77.253,32.002
		c-29.179,0-56.61-11.364-77.238-31.995c-19.433-19.44-42.164-34.632-67.562-45.152c-25.394-10.52-52.205-15.853-79.691-15.853
		H1481.78c-27.484,0-54.297,5.335-79.694,15.857c-25.392,10.52-48.12,25.708-67.553,45.141l-21.758,21.758
		c-20.637,20.637-48.072,32.002-77.253,32.002c-29.179,0-56.611-11.364-77.245-32.002c-26.596-26.597-57.702-47.38-92.454-61.773
		c-34.75-14.393-71.44-21.69-109.053-21.69h-17.926c-27.484,0-54.297,5.335-79.694,15.857c-25.392,10.52-48.12,25.706-67.554,45.141
		l-21.046,21.046c-42.6,42.594-111.909,42.597-154.5,0.003l-33.882-33.881c-19.433-19.44-42.164-34.631-67.562-45.151
		c-25.394-10.52-52.205-15.853-79.691-15.853H332.287v99h102.628c29.182,0,56.612,11.362,77.243,32.001l33.888,33.888
		c81.188,81.188,213.302,81.19,294.505-0.001l21.048-21.049c20.637-20.636,48.07-32.001,77.245-32.001h17.926
		c49.678,0,96.38,19.344,131.5,54.464c39.33,39.338,91.625,61.002,147.251,61.002c55.625,0,107.922-21.663,147.257-60.998
		l21.757-21.758c20.637-20.637,48.069-32.002,77.244-32.002h108.929c29.182,0,56.612,11.363,77.24,31.998
		c39.33,39.338,91.625,61.002,147.251,61.002c55.625,0,107.922-21.663,147.257-60.998l2.136-2.136
		c20.637-20.637,48.069-32.002,77.244-32.002h65.401c29.183,0,56.612,11.363,77.244,32.002l25.332,25.332
		c40.599,40.6,93.913,60.897,147.247,60.893c53.321-0.005,106.661-20.303,147.258-60.893l45.308-45.309
		c20.638-20.636,48.069-32.001,77.244-32.001h59.82v-99H2626.87z"/>
	<path style="fill:#FFFFFF;" d="M2528.198,2276.417c-25.392,10.521-48.12,25.708-67.553,45.141l-45.306,45.306
		c-42.6,42.593-111.908,42.595-154.5,0.004l-25.326-25.328c-19.434-19.439-42.165-34.631-67.562-45.151
		c-25.394-10.518-52.205-15.852-79.691-15.852h-65.402c-27.483,0-54.297,5.335-79.693,15.857
		c-25.392,10.52-48.119,25.706-67.562,45.147l-2.128,2.129c-20.637,20.637-48.072,32.001-77.253,32.001
		c-29.18,0-56.611-11.363-77.238-31.994c-19.433-19.44-42.164-34.632-67.562-45.152c-25.394-10.519-52.205-15.853-79.691-15.853
		h-108.928c-27.484,0-54.297,5.335-79.694,15.857c-25.392,10.52-48.12,25.707-67.552,45.141l-21.758,21.758
		c-20.636,20.636-48.072,32.001-77.253,32.001c-29.179,0-56.611-11.363-77.245-32.001c-26.596-26.597-57.702-47.38-92.454-61.773
		c-34.75-14.393-71.44-21.69-109.054-21.69h-17.926c-27.484,0-54.297,5.335-79.694,15.857c-25.392,10.52-48.12,25.707-67.554,45.14
		l-21.046,21.047c-42.6,42.593-111.91,42.593-154.5,0.004l-33.882-33.883c-19.433-19.439-42.164-34.631-67.562-45.151
		c-25.394-10.519-52.205-15.852-79.691-15.852H313.309v99h102.628c29.182,0,56.612,11.362,77.243,32l33.888,33.889
		c81.188,81.188,213.301,81.188,294.505,0l21.049-21.05c20.637-20.636,48.069-32.001,77.244-32.001h17.926
		c49.678,0,96.38,19.344,131.501,54.465c39.331,39.336,91.625,61,147.251,61c55.625,0,107.921-21.662,147.257-60.997l21.758-21.758
		c20.636-20.637,48.068-32.002,77.243-32.002h108.928c29.183,0,56.612,11.363,77.24,31.999c39.331,39.337,91.626,61,147.252,61
		c55.624,0,107.921-21.662,147.265-61.006l2.127-2.128c20.638-20.636,48.069-32.001,77.244-32.001h65.402
		c29.183,0,56.613,11.362,77.243,32l25.333,25.334c40.6,40.599,93.913,60.896,147.247,60.892
		c53.32-0.005,106.661-20.302,147.258-60.892l45.31-45.31c20.635-20.636,48.067-32.001,77.242-32.001h59.82v-99h-59.82
		C2580.408,2260.56,2553.596,2265.895,2528.198,2276.417z"/>
</g>
</svg>
