<?xml version="1.0" encoding="UTF-8"?>
<svg id="Capa_1" xmlns="http://www.w3.org/2000/svg" version="1.1" xmlns:xlink="http://www.w3.org/1999/xlink" xmlns:xodm="http://www.corel.com/coreldraw/odm/2003" viewBox="0 0 1024 1024">
  <!-- Generator: Adobe Illustrator 29.8.2, SVG Export Plug-In . SVG Version: 2.1.1 Build 3)  -->
  <defs>
    <clipPath id="clippath">
      <rect x="70.43" y="70.43" width="883.13" height="883.13" rx="243.53" ry="243.53" fill="none"/>
    </clipPath>
    <clipPath id="clippath-1">
      <rect x="624.96" y="235.48" width="554.61" height="549.22" transform="translate(-96.42 787.4) rotate(-45)" fill="none"/>
    </clipPath>
  </defs>
  <path d="M741.63,1024h-459.25C126.42,1024,0,897.58,0,741.63v-459.25C0,126.42,126.42,0,282.37,0h459.25c155.96,0,282.38,126.42,282.38,282.37v459.25c0,155.95-126.42,282.37-282.37,282.37h0ZM993.06,727.75v-431.5c0-146.53-118.78-265.31-265.31-265.31h-431.5C149.72,30.94,30.94,149.72,30.94,296.25v431.5c0,146.53,118.78,265.31,265.31,265.31h431.5c146.53,0,265.31-118.78,265.31-265.31Z" fill="#cd3d7b" fill-rule="evenodd"/>
  <rect x="70.44" y="70.44" width="883.13" height="883.13" rx="243.53" ry="243.53" fill="#cd3d7b"/>
  <g clip-path="url(#clippath)">
    <rect x="239.63" y="-150.04" width="552.74" height="545.13" transform="translate(64.5 400.76) rotate(-45)" fill="#0b4020"/>
  </g>
  <g clip-path="url(#clippath-1)">
    <rect x="70.43" y="70.43" width="883.13" height="883.13" rx="243.53" ry="243.53" fill="#d41730"/>
  </g>
  <path d="M508.96,470.37h5.57v7.88h7.1v5.57h-7.1v8.42h8.95l.79,10.19h-.03c3.36,2.4,6.01,5.73,7.55,9.63h7.36l.79,9.18h-.77c1.36.13,2.72.26,4.07.41v-7.09c0-1.01.82-1.83,1.83-1.83s1.83.82,1.83,1.83v7.5h-.01c35.05,4.2,68.17,14.71,98.22,30.35h0l15.92-22.58.51-18.65.51-18.65c.23-8.26-1.18-10.79-1.78-12.58-3.06-9.16,1.38-17.35,4.7-25.71l40.24-220.45c0-5.79,3.89-10.65,9.12-11.98h0v-14.62h-7.37v-5.57h7.37v-7.88h5.78v7.88h7.37v5.57h-7.37v14.62h0c5.24,1.33,9.12,6.19,9.12,11.98l24.91,136.64,3.9-35.32c0-1.63.81-2.96,1.8-2.96s1.8,1.32,1.8,2.96l7.34,66.5-.24,42.86c2.73,1.12,4.66,3.82,4.66,6.94v3.75c0,2.82-1.57,5.28-3.88,6.56-4.11,15.96,14.09,26.9,7.57,43.41h6.41c.81,0,1.51.46,1.84,1.2l2.12,4.86h6.23v3.58c0,.95-.67,1.75-1.56,1.95-5.31,1.21-4.54,14.79-5.17,21.65v59.75h5.93v3.02c0,2.85-2.62,3.59-2.62,6.1v2.2h18.43c1.63,0,2.96,1.33,2.96,2.96v15.64c0,1.63-1.33,2.96-2.96,2.96h-7.24v11.99c.05.98.61,1.07,1.21,1.11h.22c1.1,0,2,.9,2,2v1.94c0,1.1-.9,2-2,2h-.32c-.56.04-1.06.18-1.1,1.1v179.12H222.54v-179.12c-.05-.92-.55-1.06-1.1-1.1h-.32c-1.1,0-2-.9-2-2v-1.94c0-1.1.9-2,2-2h.22c.6-.04,1.16-.14,1.21-1.11v-11.99h-7.24c-1.63,0-2.96-1.33-2.96-2.96v-15.64c0-1.63,1.33-2.96,2.96-2.96h18.43v-2.2c0-2.52-2.62-3.25-2.62-6.1v-3.02h5.93v-59.75c-.62-6.87.14-20.45-5.17-21.65-.89-.2-1.56-1-1.56-1.95v-3.58h6.23l2.12-4.86c.32-.75,1.02-1.2,1.84-1.2h6.41c-6.52-16.51,11.68-27.45,7.57-43.41-2.31-1.28-3.88-3.75-3.88-6.56v-3.75c0-3.12,1.93-5.82,4.67-6.94l-.24-42.86,7.34-66.5c0-1.63.81-2.96,1.8-2.96s1.8,1.32,1.8,2.96l3.9,35.32,24.92-136.64c0-5.79,3.89-10.65,9.12-11.98h0v-14.62h-7.37v-5.57h7.37v-7.88h5.78v7.88h7.37v5.57h-7.37v14.62h0c5.24,1.33,9.12,6.19,9.12,11.98l40.24,220.45c3.31,8.37,7.76,16.55,4.7,25.71-.6,1.79-2.01,4.32-1.78,12.58l.51,18.65.51,18.65,15.92,22.58h0c30.05-15.64,63.17-26.14,98.22-30.34h-.01v-7.5c0-1.01.82-1.83,1.83-1.83s1.83.82,1.83,1.83v7.09c1.35-.15,2.71-.28,4.07-.41h-.77l.79-9.18h6.86c1.54-3.89,4.19-7.23,7.55-9.63l.79-10.19h8.92v-8.42h-7.11v-5.57h7.11v-7.88h-.04,0ZM512,649.69c34.22,0,62.07,22.47,62.92,50.46h.02v130.11h-125.88v-130.11h.02c.85-27.99,28.7-50.46,62.92-50.46Z" fill="#fff" fill-rule="evenodd"/>
</svg>