<?xml version="1.0" encoding="UTF-8"?>
<svg xmlns="http://www.w3.org/2000/svg" viewBox="0 0 3000 3000">
  <defs>
    <style>
      .cls-1 {
        fill: none;
        stroke: #fff;
        stroke-miterlimit: 10;
        stroke-width: 78px;
      }

      .cls-2 {
        fill: #765fa6;
      }
    </style>
  </defs>
  <g id="Base">
    <path class="cls-2" d="M84.88,133.97v2271.37c0,289.12,234.38,523.49,523.49,523.49h2271.37V634.47c0-276.42-224.08-500.5-500.5-500.5H84.88Z"/>
  </g>
  <g id="_íconos_2" data-name="íconos 2">
    <g id="LaCantera">
      <g>
        <g>
          <path class="cls-1" d="M585.36,2403.5l219.98,219.98,81.69-81.69c24.86-24.86,38.83-58.58,38.83-93.74v-24.08c0-35.16-13.97-68.88-38.83-93.74l-21.82-21.82c-24.86-24.86-58.58-38.83-93.74-38.83h0c-35.82,0-70.12,14.5-95.09,40.2l-91.03,93.71Z"/>
          <path class="cls-1" d="M918.9,2381.62l424.89-314.09c104.07-76.93,204.1-159.18,299.7-246.42l689.17-628.91c25.07-22.88,39.36-55.25,39.36-89.19h0c0-32.03-12.72-62.74-35.37-85.38l-145.42-145.42c-22.65-22.65-53.36-35.37-85.38-35.37h-9.35c-34.07,0-66.55,14.39-89.44,39.62l-628.37,692.7c-92.67,102.16-179.66,209.34-260.56,321.04l-285.59,394.31"/>
        </g>
        <path class="cls-1" d="M2155.66,2623.48l219.98-219.98-81.69-81.69c-24.86-24.86-58.58-38.83-93.74-38.83h-24.08c-35.16,0-68.88,13.97-93.74,38.83l-21.82,21.82c-24.86,24.86-38.83,58.58-38.83,93.74h0c0,35.82,14.5,70.12,40.2,95.09l93.71,91.03Z"/>
        <path class="cls-1" d="M1469.67,1957.86c56.26,45.93,113.84,90.24,172.68,132.85l394.31,285.59"/>
        <path class="cls-1" d="M1477.28,1460.16l-532.92-583.98c-22.88-25.07-55.25-39.36-89.19-39.36h0c-32.03,0-62.74,12.72-85.38,35.37l-145.42,145.42c-22.65,22.65-35.37,53.36-35.37,85.38v9.35c0,34.07,14.39,66.55,39.62,89.44l593.28,538.18"/>
        <path class="cls-1" d="M2133.78,2289.94l-314.09-424.89c-33.88-45.84-68.8-90.89-104.72-135.12"/>
        <circle class="cls-1" cx="1487.33" cy="744.33" r="312.49"/>
        <path class="cls-1" d="M1799.82,744.33h-39.55c-74.72,0-146.38,29.68-199.21,82.52h0c-52.83,52.83-82.52,124.49-82.52,199.21v30.76"/>
        <path class="cls-1" d="M1174.84,770.57h39.55c74.72,0,146.38-29.68,199.21-82.52h0c52.83-52.83,82.52-124.49,82.52-199.21v-30.76"/>
      </g>
    </g>
  </g>
</svg>