<?xml version="1.0" encoding="iso-8859-1"?>
<!-- Generator: Adobe Illustrator 29.8.2, SVG Export Plug-In . SVG Version: 9.03 Build 0)  -->
<svg version="1.1" id="Capa_1" xmlns="http://www.w3.org/2000/svg" xmlns:xlink="http://www.w3.org/1999/xlink" x="0px" y="0px"
	 viewBox="0 0 3000 3000" style="enable-background:new 0 0 3000 3000;" xml:space="preserve">
<path style="fill:#007E95;" d="M3000,3000H547.602C245.17,3000,0,2754.83,0,2452.398V0h2452.398C2754.83,0,3000,245.17,3000,547.602
	V3000z"/>
<g>
	<path style="fill:#FFFFFF;" d="M2931.256,1953.147c-3.084-24.123-22.116-42.884-46.277-45.622
		c-86.261-9.791-149.227,2.836-192.491,38.595c-10.013,8.275-18.882,17.785-26.569,28.43
		c-11.772-21.664-25.286-42.848-40.548-63.521c-40.027-54.218-92.801-105.758-156.854-153.188
		c-62.441-46.237-137.345-89.852-222.889-129.802l13.567-277.151c1.286-25.744,11.5-50.383,28.785-69.486
		c11.827-11.793,61.79-62.048,78.521-85.971c43.932-62.819,71.502-168.25,72.775-233.888l0.018-0.88l-6.874-348.479
		c-0.407-20.839-14.764-39.122-34.912-44.458c-20.154-5.339-41.672,3.441-52.343,21.348
		c-50.27,84.371-93.905,146.64-132.403,201.579c-95.769,136.663-154.218,220.09-151.688,424.808
		c-84.497,12.93-182.849,48.013-271.471,96.987c-95.263,52.644-168.546,114.533-206.352,174.266
		c-36.293,57.345-33.328,102.716-24.451,130.68c8.045,25.341,28.763,60.217,81.779,82.46c28.944,12.144,65.42,19.666,108.413,22.359
		c13.736,0.861,27.508,1.18,40.913,1.111c-3.341,5.059-6.674,10.354-9.974,15.891c-41.161,69.078-63.732,152.013-67.085,246.501
		c-2.024,57.049,3.279,202.668,5.544,264.85l0.298,8.199c-36.733,32.427-56.899,71.036-56.899,109.168
		c0,36.58,15.231,58.02,28.009,69.564c23.225,20.981,51.246,21.869,61.731,21.358h144.696c37.919,0,68.768-30.85,68.768-68.768
		v-151.799c30.506,29.08,49.294,38.561,61.503,43.147c7.812,2.936,21.168,6.651,53.864,11.407
		c-11.163,8.784-20.656,18.577-25.859,28.984c-13.103,26.205-32.904,65.808-10.986,101.272
		c20.754,33.579,64.481,38.106,104.519,38.106h366.792c67.574,0,108.376-9.776,157.485-65.335
		c45.361-51.319,49.584-121.916,51.613-155.843l0.132-2.194c0.982-16.236,1.201-32.312,0.668-48.221
		c15.712,3.763,31.303,5.65,46.468,5.65c35.243,0,68.187-10.115,94.988-30.11c27.213-20.3,46.666-49.036,57.819-85.408
		C2934.987,2043.92,2937.428,2001.322,2931.256,1953.147z M2634.222,2232.399l-0.136,2.255
		c-1.537,25.703-4.398,73.545-29.207,101.611c-26.554,30.042-39.179,34.94-90.052,34.94h-366.792c-6.936,0-12.616-0.19-17.246-0.48
		c22.156-43.628,92.059-54.813,151.137-55.75c24.512-0.389,44.172-20.431,44.771-44.958c0.601-24.579-18.113-45.307-42.612-47.188
		c-16.27-1.246-31.688-2.491-46.261-3.725c0.2-2.573,0.194-5.193-0.061-7.846c-5.886-61.447-1.862-99.125,12.75-128.228
		c15.493-30.861,46.582-57.501,101.299-85.927c21.233-11.031,30.203-36.683,20.348-58.487l0,0
		c-10.623-23.503-38.823-33.324-61.696-21.403c-72.985,38.038-115.972,76.812-140.384,125.436
		c-24.198,48.197-28.193,103.106-22.764,167.823c-50.706-5.517-80.746-10.285-89.164-13.286c-1.608-0.604-16.766-7.05-53.143-46.703
		c-22.36-24.374-41.689-49.354-47.092-56.445c-12.024-15.767-32.726-22.096-51.509-15.751c-18.789,6.347-31.413,23.937-31.413,43.77
		v246.799h-123.193c-0.007-0.293-0.011-0.601-0.011-0.923c0-11.947,11.032-28.695,28.791-43.709
		c18.821-15.911,29.11-39.148,28.229-63.752l-0.479-13.182c-2.037-55.949-7.45-204.567-5.541-258.383
		c4.352-122.625,44.669-216.964,119.834-280.396c1.722-1.452,3.208-2.707,4.599-3.938c15.319-13.563,19.749-35.876,10.771-54.261
		c-8.978-18.386-29.294-28.617-49.424-24.872c-13.023,2.424-73.931,10.704-133.951,6.949
		c-61.736-3.867-102.872-19.654-110.038-42.229c-5.602-17.646,4.912-39.821,14.72-55.316
		c29.419-46.484,92.778-98.833,173.833-143.625c82.436-45.556,173.226-77.588,249.09-87.884
		c40.227-5.459,69.896-39.501,69.013-79.184c-4.067-183.073,42.484-249.503,135.229-381.851c17.687-25.239,37.42-53.4,58.794-85.277
		l4.016,203.613c-1.341,56.553-27.646,141.916-56.528,183.214c-9.229,13.197-45.921,51.526-69.026,74.528l-1.376,1.431
		c-31.854,34.635-50.689,79.592-53.039,126.632l-14.646,299.161c-0.338,5.99-1.028,19.695,7.618,33.624
		c8.428,13.576,20.756,19.143,26.021,21.521C2497.1,1840.17,2647.13,2019.043,2634.222,2232.399z M2812.368,2093.016
		c-21.609,16.121-55.549,16.44-90.792,0.858c-1.091-0.482-1.783-1.738-1.683-3.055c2.784-36.343,12.574-60.982,29.93-75.326
		c18.976-15.684,50.738-22.696,94.639-20.935C2846.015,2041.741,2834.943,2076.174,2812.368,2093.016z"/>
	<ellipse style="fill:#FFFFFF;" cx="1927.8" cy="1461.389" rx="56.155" ry="52.292"/>
	<path style="fill:#FFFFFF;" d="M68.744,1953.147c3.084-24.123,22.116-42.884,46.277-45.622
		c86.261-9.791,149.227,2.836,192.491,38.595c10.013,8.275,18.882,17.785,26.569,28.43c11.772-21.664,25.286-42.848,40.548-63.521
		c40.027-54.218,92.801-105.758,156.854-153.188c62.441-46.237,137.345-89.852,222.889-129.802l-13.567-277.151
		c-1.286-25.744-11.5-50.383-28.785-69.486c-11.827-11.793-61.79-62.048-78.521-85.971c-43.932-62.819-71.502-168.25-72.775-233.888
		l-0.018-0.88l6.874-348.479c0.407-20.839,14.764-39.122,34.912-44.458c20.154-5.339,41.672,3.441,52.343,21.348
		c50.27,84.371,93.905,146.64,132.403,201.579c95.769,136.663,154.218,220.09,151.688,424.808
		c84.497,12.93,182.85,48.013,271.471,96.987c95.263,52.644,168.546,114.533,206.352,174.266
		c36.293,57.345,33.328,102.716,24.451,130.68c-8.045,25.341-28.763,60.217-81.779,82.46
		c-28.944,12.144-65.42,19.666-108.413,22.359c-13.736,0.861-27.508,1.18-40.913,1.111c3.341,5.059,6.674,10.354,9.974,15.891
		c41.161,69.078,63.732,152.013,67.085,246.501c2.024,57.049-3.279,202.668-5.544,264.85l-0.298,8.199
		c36.733,32.427,56.899,71.036,56.899,109.168c0,36.58-15.231,58.02-28.009,69.564c-23.225,20.981-51.246,21.869-61.731,21.358
		h-144.696c-37.919,0-68.768-30.85-68.768-68.768v-151.799c-30.506,29.08-49.294,38.561-61.503,43.147
		c-7.812,2.936-21.168,6.651-53.864,11.407c11.163,8.784,20.656,18.577,25.859,28.984c13.104,26.205,32.904,65.808,10.986,101.272
		c-20.754,33.579-64.481,38.106-104.52,38.106H485.173c-67.574,0-108.376-9.776-157.485-65.335
		c-45.361-51.319-49.584-121.916-51.613-155.843l-0.132-2.194c-0.982-16.236-1.201-32.312-0.668-48.221
		c-15.712,3.763-31.303,5.65-46.468,5.65c-35.243,0-68.187-10.115-94.988-30.11c-27.213-20.3-46.666-49.036-57.819-85.408
		C65.013,2043.92,62.572,2001.322,68.744,1953.147z M365.778,2232.399l0.136,2.255c1.537,25.703,4.398,73.545,29.207,101.611
		c26.554,30.042,39.179,34.94,90.052,34.94h366.792c6.936,0,12.616-0.19,17.246-0.48c-22.156-43.628-92.059-54.813-151.137-55.75
		c-24.512-0.389-44.172-20.431-44.771-44.958c-0.601-24.579,18.113-45.307,42.612-47.188c16.27-1.246,31.688-2.491,46.261-3.725
		c-0.2-2.573-0.194-5.193,0.061-7.846c5.886-61.447,1.862-99.125-12.75-128.228c-15.493-30.861-46.582-57.501-101.299-85.927
		c-21.233-11.031-30.203-36.683-20.348-58.487l0,0c10.623-23.503,38.823-33.324,61.696-21.403
		c72.985,38.038,115.972,76.812,140.384,125.436c24.198,48.197,28.193,103.106,22.764,167.823
		c50.706-5.517,80.746-10.285,89.164-13.286c1.608-0.604,16.767-7.05,53.144-46.703c22.36-24.374,41.689-49.354,47.092-56.445
		c12.024-15.767,32.726-22.096,51.509-15.751c18.789,6.347,31.413,23.937,31.413,43.77v246.799h123.193
		c0.007-0.293,0.011-0.601,0.011-0.923c0-11.947-11.032-28.695-28.791-43.709c-18.821-15.911-29.11-39.148-28.229-63.752
		l0.479-13.182c2.037-55.949,7.45-204.567,5.541-258.383c-4.352-122.625-44.669-216.964-119.834-280.396
		c-1.722-1.452-3.208-2.707-4.599-3.938c-15.319-13.563-19.749-35.876-10.771-54.261c8.978-18.386,29.294-28.617,49.424-24.872
		c13.023,2.424,73.931,10.704,133.951,6.949c61.736-3.867,102.872-19.654,110.038-42.229c5.602-17.646-4.912-39.821-14.72-55.316
		c-29.419-46.484-92.778-98.833-173.833-143.625c-82.436-45.556-173.226-77.588-249.09-87.884
		c-40.227-5.459-69.896-39.501-69.013-79.184c4.067-183.073-42.484-249.503-135.229-381.851
		c-17.687-25.239-37.42-53.4-58.794-85.277l-4.016,203.613c1.341,56.553,27.646,141.916,56.528,183.214
		c9.229,13.197,45.921,51.526,69.026,74.528l1.376,1.431c31.854,34.635,50.689,79.592,53.039,126.632l14.646,299.161
		c0.338,5.99,1.028,19.695-7.618,33.624c-8.428,13.576-20.756,19.143-26.021,21.521C502.9,1840.17,352.87,2019.043,365.778,2232.399
		z M187.632,2093.016c21.609,16.121,55.549,16.44,90.792,0.858c1.091-0.482,1.783-1.738,1.683-3.055
		c-2.784-36.343-12.574-60.982-29.93-75.326c-18.976-15.684-50.738-22.696-94.639-20.935
		C153.985,2041.741,165.057,2076.174,187.632,2093.016z"/>
	<ellipse style="fill:#FFFFFF;" cx="1072.2" cy="1461.389" rx="56.155" ry="52.292"/>
</g>
</svg>
