<?xml version="1.0" encoding="UTF-8"?>
<svg xmlns="http://www.w3.org/2000/svg" viewBox="0 0 3000 3000">
  <defs>
    <style>
      .cls-1 {
        stroke-width: 66.33px;
      }

      .cls-1, .cls-2, .cls-3 {
        stroke: #fff;
        stroke-linecap: round;
        stroke-linejoin: round;
      }

      .cls-1, .cls-3 {
        fill: none;
      }

      .cls-2 {
        fill: #fff;
        stroke-width: 56.12px;
      }

      .cls-3 {
        stroke-width: 78px;
      }

      .cls-4 {
        fill: #765fa6;
      }
    </style>
  </defs>
  <g id="Base">
    <path class="cls-4" d="M84.88,133.97v2271.37c0,289.12,234.38,523.49,523.49,523.49h2271.37V634.47c0-276.42-224.08-500.5-500.5-500.5H84.88Z"/>
  </g>
  <g id="Iconos">
    <g id="Mariano">
      <g>
        <path class="cls-1" d="M967.32,1143.84v482.84c0,188.28,169.84,340.91,379.35,340.91h275.61c209.51,0,379.35-152.63,379.35-340.91v-482.84l87.3-164.33c11.81-22.24,17.99-47.03,17.99-72.21v-132.91c0-33.56-10.97-66.19-31.23-92.94h0c-29.1-38.41-74.5-60.97-122.68-60.97h-7.12l-67.89-79.87c-23.73-27.91-58.51-44-95.15-44h-498.12c-200.96,0-363.87,162.91-363.87,363.87v137.81l46.45,145.55Z"/>
        <path class="cls-1" d="M2001.65,1177.9h71.23c66.7,0,120.77,54.07,120.77,120.77v26.34c0,96.64-78.34,174.98-174.98,174.98h-17.02"/>
        <path class="cls-1" d="M967.32,1143.84l49.24-109.25c30.35-67.33,97.34-110.62,171.19-110.62h176.16c22.39,0,44.61-4.01,65.59-11.83l352.8-131.52c67.23-25.06,138.83,24.66,138.83,96.41v102.99c0,38.34,10.1,76.01,29.28,109.21l51.24,88.68"/>
        <path class="cls-1" d="M967.32,1500h-17.02c-96.64,0-174.98-78.34-174.98-174.98v-26.34c0-66.7,54.07-120.77,120.77-120.77h71.23"/>
        <path class="cls-1" d="M1165.52,1150.03h159.7c90.32,0,157.98,82.77,140,171.29l-25.7,126.53c-8.77,43.17,24.23,83.55,68.29,83.55h29.33"/>
        <path class="cls-2" d="M900.72,1492.86v110.06c0,201.39,163.26,364.66,364.66,364.66h0c13.43,0,21.9-14.43,15.37-26.16l-188.89-239.02-124.53-323.21v152.2l-66.6-38.54Z"/>
        <path class="cls-2" d="M2066.42,1492.86v110.06c0,201.39-163.26,364.66-364.66,364.66h0c-13.43,0-21.9-14.43-15.37-26.16l188.89-239.02,124.53-323.21v152.2l66.6-38.54Z"/>
        <path class="cls-3" d="M1911.34,1901.37l35.49,28.87c106.05,86.27,225.25,154.97,353.06,203.48l231.3,87.79v334.45H459.45v-327.3l225.88-85.44c123.25-46.62,238.55-112.02,341.82-193.88l46.02-36.48"/>
        <polyline class="cls-3" points="871.32 2055.15 1081.9 2215.32 1321.58 2038.65 1165.52 1953.74"/>
        <polyline class="cls-3" points="2106.94 2041.33 1902.55 2228.67 1684.15 2023.26 1863.79 1921.66"/>
        <path class="cls-3" d="M1126.46,2187.52v35.55c0,183.86,149.05,332.9,332.9,332.9h51.44c183.86,0,332.9-149.05,332.9-332.9v-36.63"/>
        <ellipse class="cls-3" cx="1489.04" cy="2091.33" rx="156.47" ry="123.99"/>
      </g>
    </g>
  </g>
</svg>