<?xml version="1.0" encoding="UTF-8"?>
<svg id="Capa_1" xmlns="http://www.w3.org/2000/svg" version="1.1" xmlns:xodm="http://www.corel.com/coreldraw/odm/2003" viewBox="0 0 1024 1024">
  <!-- Generator: Adobe Illustrator 29.8.2, SVG Export Plug-In . SVG Version: 2.1.1 Build 3)  -->
  <g>
    <rect x="70.44" y="70.44" width="883.13" height="883.13" rx="243.53" ry="243.53" fill="#cd3d7b"/>
    <path d="M741.63,1024h-459.25C126.42,1024,0,897.58,0,741.63v-459.25C0,126.42,126.42,0,282.37,0h459.25c155.96,0,282.38,126.42,282.38,282.37v459.25c0,155.95-126.42,282.37-282.37,282.37h0ZM993.06,727.75v-431.5c0-146.53-118.78-265.31-265.31-265.31h-431.5c-146.53,0-265.31,118.78-265.31,265.31v431.5c0,146.53,118.78,265.31,265.31,265.31h431.5c146.53,0,265.31-118.78,265.31-265.31Z" fill="#cd3d7b" fill-rule="evenodd"/>
  </g>
  <path d="M646.74,859.96l-64.76-122.17,52.44-93.16-108.86-268.53h-25.39l-110.81,266.6,52.93,95.85-63.42,120.42,267.87,1h0ZM361.12,637.52l-57.98-97.61,11.27-6.76,53.53,88.61,102.54-245.66h-244.87l1.11,172.37,98.48,174.52,10.66-25.36-74.34-132.89,10.64-6.8,71.29,121.62s5.42-12.84,5.42-12.91l-67.08-114.78,10.45-6.18,63.42,104.81,5.46-12.98h0ZM772.91,572.67l-80.56,139.34,6.71,16.32,96.86-170.49,2.48-181.74h-246.27l109.88,260.55,56.33-96.91,11.87,7.12-62.3,105.68,6.34,15.41,66.93-115.53,11.07,6.94-71.47,124.48,6.18,13.1,75.27-130.95,10.68,6.67h0ZM452.09,266.08l-43.33,84.09h217.3l-58.45-186.14h-133.23l-69.33,76.09,40.12,52.63,22.28-26.67h24.65,0Z" fill="#fff" fill-rule="evenodd"/>
</svg>